# xmcd
#
# Track frame offsets:
#	150
#	12578
#	25726
#	38529
#	48039
#	59244
#	73997
#	85810
#	95230
#	107065
#	118098
#	129191
#
# Disc length: 1883 seconds
#
# Revision: 1
# Processed by: cddbd v1.5.2PL0 Copyright (c) Steve Scherf et al.
# Submitted via: audiograbber 1.83.01
#
DISCID=a307590c
DTITLE=Hank Snow - More Hank Snow Souvenirs
DYEAR=1964
DGENRE=Country
TTITLE0=Let Me Go Lover
TTITLE1=The Gal Who Invented Kissin'
TTITLE2=The Next Voice You Hear
TTITLE3=One More Ride
TTITLE4=Stolen Moments
TTITLE5=A Faded Petal From A Beautiful Bouquet
TTITLE6=Miller's Cave
TTITLE7=The Wreck Of The Old '97
TTITLE8=Tangled Mind
TTITLE9=The Gold Rush Is Over
TTITLE10=Down The Trail Of Achin' Hearts
TTITLE11=The Change Of The Tide
EXTD=these were taken from my LP's that I converted to CD's
EXTT0=
EXTT1=
EXTT2=
EXTT3=
EXTT4=
EXTT5=
EXTT6=
EXTT7=
EXTT8=
EXTT9=
EXTT10=
EXTT11=
PLAYORDER=
